<svg xmlns="http://www.w3.org/2000/svg" viewBox="0 0 64 64" role="img" aria-label="SY monogram">
  <rect width="64" height="64" rx="14" fill="#fafbf9"/>
  <rect x="6.5" y="6.5" width="51" height="51" rx="11.5" fill="none" stroke="#d8d6cf"/>
  <path d="M21.2 40.5c1.8 1.7 4.2 2.5 7.1 2.5 3.5 0 5.7-1.4 5.7-3.7 0-2.1-1.5-3.1-5.4-4.1l-2.3-.6c-4.8-1.2-7.4-3.7-7.4-7.5 0-4.7 4-7.8 10-7.8 3.5 0 6.4.9 8.5 2.7l-2.1 3.3c-1.7-1.4-3.8-2.1-6.4-2.1-3.1 0-5.1 1.4-5.1 3.6 0 2 1.6 3 5.3 3.9l2.3.6c5.1 1.3 7.6 3.7 7.6 7.6 0 4.9-4 8-10.7 8-4.1 0-7.4-1.1-9.6-3.3l2.5-3.1Z" fill="#1f1f1f"/>
  <path d="M39.9 20h4.8l-8.4 15.4V46h-4.4V35.4L23.5 20h5l5.7 10.9L39.9 20Z" fill="#1f1f1f" fill-opacity=".78"/>
</svg>
